<svg width="568" height="187" viewBox="0 0 568 187" fill="none" xmlns="http://www.w3.org/2000/svg">
<path d="M97.577 179.244C97.577 180.872 97.1701 182.174 96.3563 183.15C95.6239 184.127 94.3218 184.615 92.4501 184.615C91.4735 184.615 90.4563 184.493 89.3983 184.249C88.3404 184.086 87.3231 183.801 86.3466 183.395C84.3121 182.825 82.6844 182.296 81.4637 181.808C80.3244 181.319 79.4292 180.668 78.7782 179.854C78.2085 179.122 77.8423 178.146 77.6796 176.925C77.5168 175.704 77.3947 174.036 77.3134 171.92C76.6623 155.237 75.9299 138.717 75.1161 122.359C74.3837 105.921 73.163 89.4004 71.454 72.7988C70.3147 78.4141 69.216 84.0293 68.1581 89.6445C67.1001 95.2598 66.0015 100.956 64.8622 106.734C63.7229 112.757 62.6242 118.901 61.5663 125.167C60.5897 131.433 59.0028 137.496 56.8055 143.355C55.9104 145.715 54.8117 147.587 53.5096 148.971C52.2076 150.273 50.2137 150.924 47.5282 150.924C45.5751 150.924 43.9882 150.598 42.7675 149.947C41.5468 149.215 40.3667 148.157 39.2274 146.773C38.1695 145.634 37.0302 143.437 35.8094 140.182C34.5887 136.926 33.2867 133.142 31.9032 128.829C30.6011 124.435 29.299 119.755 27.9969 114.791C26.6949 109.827 25.4742 105.066 24.3348 100.509C23.1955 95.8701 22.1783 91.6383 21.2831 87.8135C20.3879 83.9886 19.6962 81.0996 19.2079 79.1465V95.748C19.2079 106.572 19.4113 117.354 19.8182 128.097C20.2251 138.839 20.9169 149.54 21.8934 160.201C22.1376 162.561 22.4631 164.921 22.87 167.281C23.3583 169.641 23.6024 172.001 23.6024 174.361C23.6024 176.477 22.87 177.861 21.4052 178.512C20.0217 179.163 18.4755 179.488 16.7665 179.488C12.1278 179.488 8.54708 178.512 6.02429 176.559C3.58289 174.524 2.36218 171.106 2.36218 166.305C2.36218 156.458 2.11804 146.692 1.62976 137.008C1.14148 127.324 0.897339 117.558 0.897339 107.711C0.897339 106.327 0.897339 103.927 0.897339 100.509C0.978719 97.0908 1.0601 93.0625 1.14148 88.4238C1.22286 83.7038 1.30424 78.6175 1.38562 73.165C1.54838 67.6312 1.71114 62.0566 1.8739 56.4414C2.03666 50.8262 2.19942 45.3737 2.36218 40.084C2.52494 34.7129 2.6877 29.9115 2.85046 25.6797C3.01322 21.4479 3.17598 17.9486 3.33875 15.1816C3.58289 12.3333 3.82703 10.6243 4.07117 10.0547C4.47807 8.91536 4.92566 8.18294 5.41394 7.85742C5.9836 7.5319 6.83809 7.36914 7.97742 7.36914C11.0699 7.36914 13.6333 8.06087 15.6678 9.44434C17.7837 10.7464 19.2079 12.9844 19.9403 16.1582C21.0796 17.8672 22.3817 21.0003 23.8466 25.5576C25.3114 30.0335 26.8576 35.2826 28.4852 41.3047C30.1128 47.3268 31.7404 53.8372 33.368 60.8359C35.077 67.7533 36.6639 74.4264 38.1288 80.8555C39.675 87.2845 41.0585 93.1846 42.2792 98.5557C43.5813 103.927 44.5985 108.036 45.3309 110.885C47.691 96.8874 50.0917 82.9714 52.5331 69.1367C54.9745 55.3021 57.2938 41.3861 59.4911 27.3887C59.898 25.0286 60.3049 22.7093 60.7118 20.4307C61.2001 18.152 61.4442 15.8327 61.4442 13.4727C61.4442 12.0078 61.2408 10.665 60.8339 9.44434C60.427 8.14225 60.2235 6.79948 60.2235 5.41602C60.2235 3.70703 60.7525 2.68978 61.8104 2.36426C62.9497 1.95736 64.2111 1.75391 65.5946 1.75391C66.8967 1.75391 68.4429 1.95736 70.2333 2.36426C72.0236 2.77116 73.7326 3.38151 75.3602 4.19531C77.0692 5.00911 78.4934 6.02637 79.6327 7.24707C80.8534 8.46777 81.4637 9.89193 81.4637 11.5195C81.4637 14.3678 81.2196 17.3789 80.7313 20.5527C83.661 34.306 86.1024 48.0999 88.0555 61.9346C90.0087 75.6878 91.4735 89.5632 92.4501 103.561C93.4266 115.605 94.1997 127.568 94.7694 139.449C95.4205 151.331 96.1936 163.212 97.0887 175.094C97.2515 175.826 97.3736 176.518 97.455 177.169C97.5363 177.82 97.577 178.512 97.577 179.244ZM155.927 156.661C155.927 159.103 155.235 161.625 153.851 164.229C152.549 166.834 150.84 169.234 148.724 171.432C146.609 173.548 144.167 175.297 141.4 176.681C138.715 178.064 136.029 178.756 133.344 178.756C129.519 178.756 126.223 178.023 123.456 176.559C120.689 175.012 118.288 172.978 116.254 170.455C114.219 167.851 112.551 164.921 111.249 161.666C110.028 158.411 109.052 155.074 108.319 151.656C107.587 148.157 107.058 144.698 106.732 141.28C106.488 137.781 106.366 134.607 106.366 131.759C106.366 129.317 106.488 126.428 106.732 123.092C107.058 119.755 107.546 116.297 108.197 112.716C108.93 109.135 109.906 105.595 111.127 102.096C112.348 98.5964 113.853 95.4632 115.643 92.6963C117.515 89.9294 119.712 87.6914 122.235 85.9824C124.839 84.2734 127.81 83.4189 131.146 83.4189C133.751 83.4189 136.07 83.9479 138.104 85.0059C140.22 86.0638 141.97 87.488 143.353 89.2783C144.818 90.9873 145.917 92.9811 146.649 95.2598C147.463 97.5384 147.87 99.8984 147.87 102.34C147.87 105.514 147.138 108.972 145.673 112.716C144.208 116.459 142.295 120.081 139.935 123.58C137.657 127.079 135.053 130.253 132.123 133.102C129.275 135.868 126.426 137.984 123.578 139.449C123.741 140.914 124.066 143.071 124.555 145.919C125.043 148.686 125.694 151.453 126.508 154.22C127.403 156.987 128.42 159.387 129.559 161.422C130.78 163.456 132.204 164.474 133.832 164.474C134.646 164.474 135.337 164.229 135.907 163.741C136.558 163.253 137.128 162.602 137.616 161.788C138.104 160.974 138.511 160.079 138.837 159.103C139.244 158.126 139.61 157.19 139.935 156.295L140.668 154.586C140.831 154.342 140.912 154.179 140.912 154.098C140.993 154.016 141.075 153.894 141.156 153.731C141.726 152.674 142.255 151.697 142.743 150.802C143.313 149.907 144.086 149.133 145.062 148.482H144.94C145.266 148.157 145.591 147.994 145.917 147.994C146.324 147.913 146.69 147.872 147.016 147.872C147.911 147.872 148.887 148.157 149.945 148.727C151.003 149.296 151.98 150.029 152.875 150.924C153.77 151.738 154.502 152.674 155.072 153.731C155.642 154.708 155.927 155.685 155.927 156.661ZM131.757 102.828C131.757 102.014 131.716 101.16 131.635 100.265C131.553 99.3695 131.35 98.5964 131.024 97.9453C129.885 99.3288 128.868 100.997 127.973 102.95C127.159 104.822 126.467 106.816 125.897 108.932C125.328 110.966 124.839 113.041 124.432 115.157C124.107 117.273 123.863 119.226 123.7 121.017C125.816 118.494 127.688 115.646 129.315 112.472C130.943 109.216 131.757 106.002 131.757 102.828ZM213.544 177.413C213.544 179.041 213.137 180.139 212.323 180.709C211.509 181.36 210.37 181.686 208.905 181.686C205.08 181.686 202.313 180.668 200.604 178.634C198.977 176.599 197.756 173.914 196.942 170.577C196.698 169.438 196.454 168.299 196.21 167.159C195.966 165.938 195.762 164.758 195.599 163.619C195.437 162.561 195.274 161.829 195.111 161.422C194.948 161.015 194.786 160.242 194.623 159.103C193.646 161.463 192.426 163.945 190.961 166.549C189.577 169.072 187.95 171.432 186.078 173.629C184.206 175.745 182.09 177.494 179.73 178.878C177.452 180.261 174.929 180.953 172.162 180.953C169.232 180.953 166.791 180.261 164.838 178.878C162.885 177.413 161.338 175.623 160.199 173.507C159.141 171.31 158.368 168.909 157.88 166.305C157.473 163.701 157.269 161.218 157.269 158.858C157.269 153.325 157.798 147.343 158.856 140.914C159.996 134.404 161.542 127.934 163.495 121.505C165.448 114.994 167.727 108.769 170.331 102.828C172.935 96.806 175.783 91.557 178.876 87.0811V87.2031L179.608 86.1045C180.503 84.8838 181.521 83.5817 182.66 82.1982C183.881 80.7334 185.305 80.001 186.932 80.001C188.479 80.001 189.821 80.6927 190.961 82.0762C192.1 83.3783 192.914 84.7617 193.402 86.2266C195.518 86.6335 197.227 87.1624 198.529 87.8135C199.831 88.3831 200.849 89.1156 201.581 90.0107C202.313 90.9059 202.802 91.9639 203.046 93.1846C203.29 94.3239 203.412 95.5853 203.412 96.9688C203.412 97.5384 203.412 98.1488 203.412 98.7998C203.412 99.4508 203.371 100.102 203.29 100.753C203.209 101.404 203.168 102.177 203.168 103.072C203.168 103.967 203.168 104.781 203.168 105.514C203.168 106.327 203.29 107.385 203.534 108.688C203.86 109.99 204.185 111.332 204.511 112.716L205.365 117.232C205.772 119.592 206.098 122.278 206.342 125.289C206.667 128.3 207.033 131.311 207.44 134.322C207.766 137.415 208.091 140.426 208.417 143.355C208.742 146.204 209.068 148.849 209.393 151.29L212.323 169.356L212.689 171.432C212.852 172.49 213.015 173.466 213.178 174.361C213.422 175.257 213.544 176.274 213.544 177.413ZM185.59 107.223C185.59 107.06 185.549 106.816 185.468 106.49C185.386 106.083 185.305 105.676 185.224 105.27C183.352 109.257 181.683 113.611 180.219 118.331C178.835 122.97 177.655 127.73 176.679 132.613C175.783 137.415 175.092 142.257 174.603 147.14C174.196 151.941 173.993 156.498 173.993 160.812C173.993 161.218 173.993 161.585 173.993 161.91C173.993 162.236 174.034 162.561 174.115 162.887V163.009C176.068 159.998 177.737 156.051 179.12 151.168C180.585 146.204 181.806 141.036 182.782 135.665C183.759 130.213 184.45 124.964 184.857 119.918C185.346 114.791 185.59 110.559 185.59 107.223ZM246.991 175.948C246.991 176.843 246.788 177.617 246.381 178.268C245.974 178.837 245.445 179.285 244.794 179.61C244.224 179.936 243.573 180.139 242.841 180.221C242.19 180.383 241.539 180.465 240.888 180.465C239.992 180.465 238.934 180.343 237.714 180.099C236.574 179.936 235.435 179.651 234.296 179.244C233.156 178.837 232.099 178.349 231.122 177.779C230.227 177.128 229.535 176.355 229.047 175.46C228.558 174.646 228.111 173.141 227.704 170.943C227.378 168.665 227.094 166.061 226.849 163.131C226.605 160.12 226.402 156.946 226.239 153.609C226.076 150.191 225.914 146.936 225.751 143.844C225.669 140.751 225.588 137.984 225.507 135.543C225.507 133.02 225.507 131.148 225.507 129.928C225.507 124.231 225.588 118.738 225.751 113.448C225.995 108.077 226.239 102.584 226.483 96.9688C226.076 96.9688 225.669 97.0094 225.263 97.0908C224.856 97.1722 224.449 97.2129 224.042 97.2129C222.984 97.3757 221.885 97.4977 220.746 97.5791C219.688 97.6605 218.589 97.7012 217.45 97.7012C216.067 97.7012 214.846 97.457 213.788 96.9688C212.73 96.4805 212.201 95.3818 212.201 93.6729C212.201 91.6383 212.649 90.0107 213.544 88.79C214.439 87.5693 215.578 86.6335 216.962 85.9824C218.345 85.25 219.851 84.7617 221.478 84.5176C223.106 84.1921 224.693 83.9479 226.239 83.7852C226.483 83.7852 226.646 83.7852 226.727 83.7852C226.809 83.7038 226.972 83.6631 227.216 83.6631C227.297 82.6865 227.378 81.5065 227.46 80.123C227.541 78.6582 227.623 77.0713 227.704 75.3623C227.785 72.6768 227.907 69.8285 228.07 66.8174C228.233 63.7249 228.396 60.7952 228.558 58.0283C228.721 55.18 228.925 52.6979 229.169 50.582C229.413 48.3848 229.657 46.8385 229.901 45.9434C230.308 44.8854 230.756 44.0309 231.244 43.3799C231.814 42.7288 232.831 42.4033 234.296 42.4033C237.551 42.4033 240.074 43.4613 241.864 45.5771C243.655 47.693 244.55 50.2972 244.55 53.3896C244.55 56.9704 244.428 60.5511 244.183 64.1318C244.021 67.7126 243.858 71.334 243.695 74.9961L243.329 81.2217C245.363 80.9775 247.398 80.6113 249.432 80.123C251.386 79.7161 253.339 79.3499 255.292 79.0244C257.326 78.6989 259.28 78.5361 261.151 78.5361C262.779 78.5361 264.04 78.9837 264.935 79.8789C265.831 80.6927 266.278 81.9134 266.278 83.541C266.278 85.3314 265.953 87.0811 265.302 88.79C264.651 90.499 263.511 91.8011 261.884 92.6963H262.006C261.68 92.859 260.704 93.1032 259.076 93.4287C257.448 93.6729 255.577 93.917 253.461 94.1611C251.426 94.4053 249.392 94.6494 247.357 94.8936C245.404 95.1377 243.939 95.3005 242.963 95.3818H242.841C242.678 99.9391 242.556 104.456 242.474 108.932C242.393 113.326 242.352 117.802 242.352 122.359C242.352 128.626 242.515 135.299 242.841 142.379C243.248 149.378 243.899 156.051 244.794 162.398L245.77 167.892C246.096 169.275 246.381 170.659 246.625 172.042C246.869 173.344 246.991 174.646 246.991 175.948ZM339.642 140.426C339.642 146.448 338.666 152.145 336.713 157.516C334.76 162.887 331.952 167.607 328.29 171.676C324.709 175.663 320.355 178.837 315.228 181.197C310.101 183.639 304.405 184.859 298.139 184.859C292.605 184.859 287.478 183.964 282.758 182.174C278.119 180.465 274.091 178.023 270.673 174.85C267.255 171.676 264.569 167.81 262.616 163.253C260.744 158.696 259.808 153.609 259.808 147.994C259.808 146.855 259.849 145.431 259.931 143.722C260.012 142.013 260.256 140.385 260.663 138.839C261.151 137.211 261.802 135.868 262.616 134.811C263.511 133.671 264.773 133.102 266.4 133.102C267.702 133.102 269.127 133.386 270.673 133.956C272.3 134.444 273.806 135.136 275.189 136.031C276.573 136.926 277.712 138.025 278.607 139.327C279.584 140.548 280.072 141.891 280.072 143.355V150.436C280.072 156.051 281.578 160.649 284.589 164.229C287.681 167.729 292.116 169.479 297.894 169.479C301.963 169.479 305.463 168.543 308.392 166.671C311.322 164.799 313.682 162.398 315.473 159.469C317.344 156.539 318.687 153.284 319.501 149.703C320.396 146.041 320.844 142.46 320.844 138.961C320.844 132.125 319.419 125.493 316.571 119.063C313.804 112.634 310.305 106.368 306.073 100.265C301.841 94.0798 297.243 88.0169 292.279 82.0762C287.315 76.1354 282.717 70.2354 278.485 64.376C274.253 58.5166 270.713 52.6572 267.865 46.7979C265.098 40.9385 263.715 34.957 263.715 28.8535C263.715 23.8893 264.691 19.6169 266.644 16.0361C268.679 12.374 271.324 9.40365 274.579 7.125C277.916 4.76497 281.659 3.05599 285.809 1.99805C290.041 0.858724 294.395 0.289062 298.871 0.289062C304.323 0.289062 309.206 1.06217 313.519 2.6084C317.833 4.15462 321.495 6.39258 324.506 9.32227C327.517 12.252 329.795 15.8734 331.342 20.1865C332.969 24.4183 333.783 29.2604 333.783 34.7129C333.783 35.5267 333.742 36.5439 333.661 37.7646C333.58 38.9854 333.376 40.2061 333.051 41.4268C332.725 42.5661 332.237 43.5833 331.586 44.4785C330.935 45.2923 330.04 45.6992 328.9 45.6992C327.273 45.6992 325.645 45.2923 324.017 44.4785C322.634 43.7461 321.495 43.0544 320.599 42.4033C319.786 41.6709 319.135 40.8978 318.646 40.084C318.158 39.1888 317.792 38.2122 317.548 37.1543C317.304 36.0964 317.1 34.7943 316.937 33.248C316.53 30.3184 316.002 27.6735 315.35 25.3135C314.699 22.9535 313.723 20.9596 312.421 19.332C311.119 17.7044 309.41 16.443 307.294 15.5479C305.178 14.6527 302.452 14.2051 299.115 14.2051C296.755 14.2051 294.476 14.4492 292.279 14.9375C290.163 15.4258 288.292 16.2396 286.664 17.3789C285.118 18.5182 283.856 20.0238 282.88 21.8955C281.985 23.6859 281.537 25.9238 281.537 28.6094C281.537 32.3529 282.351 36.1777 283.978 40.084C285.687 43.9902 287.885 47.9779 290.57 52.0469C293.337 56.1159 296.43 60.307 299.848 64.6201C303.347 68.8519 306.928 73.2464 310.59 77.8037C314.252 82.361 317.792 87.0811 321.21 91.9639C324.709 96.7653 327.802 101.77 330.487 106.979C333.254 112.187 335.451 117.599 337.079 123.214C338.788 128.748 339.642 134.485 339.642 140.426ZM372.968 175.948C372.968 176.843 372.764 177.617 372.357 178.268C371.95 178.837 371.421 179.285 370.77 179.61C370.201 179.936 369.55 180.139 368.817 180.221C368.166 180.383 367.515 180.465 366.864 180.465C365.969 180.465 364.911 180.343 363.69 180.099C362.551 179.936 361.412 179.651 360.272 179.244C359.133 178.837 358.075 178.349 357.099 177.779C356.203 177.128 355.512 176.355 355.023 175.46C354.535 174.646 354.087 173.141 353.681 170.943C353.355 168.665 353.07 166.061 352.826 163.131C352.582 160.12 352.378 156.946 352.216 153.609C352.053 150.191 351.89 146.936 351.727 143.844C351.646 140.751 351.565 137.984 351.483 135.543C351.483 133.02 351.483 131.148 351.483 129.928C351.483 124.231 351.565 118.738 351.727 113.448C351.972 108.077 352.216 102.584 352.46 96.9688C352.053 96.9688 351.646 97.0094 351.239 97.0908C350.832 97.1722 350.425 97.2129 350.018 97.2129C348.96 97.3757 347.862 97.4977 346.723 97.5791C345.665 97.6605 344.566 97.7012 343.427 97.7012C342.043 97.7012 340.822 97.457 339.765 96.9688C338.707 96.4805 338.178 95.3818 338.178 93.6729C338.178 91.6383 338.625 90.0107 339.52 88.79C340.416 87.5693 341.555 86.6335 342.938 85.9824C344.322 85.25 345.827 84.7617 347.455 84.5176C349.083 84.1921 350.669 83.9479 352.216 83.7852C352.46 83.7852 352.623 83.7852 352.704 83.7852C352.785 83.7038 352.948 83.6631 353.192 83.6631C353.274 82.6865 353.355 81.5065 353.436 80.123C353.518 78.6582 353.599 77.0713 353.681 75.3623C353.762 72.6768 353.884 69.8285 354.047 66.8174C354.21 63.7249 354.372 60.7952 354.535 58.0283C354.698 55.18 354.901 52.6979 355.145 50.582C355.39 48.3848 355.634 46.8385 355.878 45.9434C356.285 44.8854 356.732 44.0309 357.221 43.3799C357.79 42.7288 358.807 42.4033 360.272 42.4033C363.528 42.4033 366.05 43.4613 367.841 45.5771C369.631 47.693 370.526 50.2972 370.526 53.3896C370.526 56.9704 370.404 60.5511 370.16 64.1318C369.997 67.7126 369.835 71.334 369.672 74.9961L369.306 81.2217C371.34 80.9775 373.375 80.6113 375.409 80.123C377.362 79.7161 379.315 79.3499 381.268 79.0244C383.303 78.6989 385.256 78.5361 387.128 78.5361C388.755 78.5361 390.017 78.9837 390.912 79.8789C391.807 80.6927 392.255 81.9134 392.255 83.541C392.255 85.3314 391.929 87.0811 391.278 88.79C390.627 90.499 389.488 91.8011 387.86 92.6963H387.982C387.657 92.859 386.68 93.1032 385.053 93.4287C383.425 93.6729 381.553 93.917 379.437 94.1611C377.403 94.4053 375.368 94.6494 373.334 94.8936C371.381 95.1377 369.916 95.3005 368.939 95.3818H368.817C368.655 99.9391 368.532 104.456 368.451 108.932C368.37 113.326 368.329 117.802 368.329 122.359C368.329 128.626 368.492 135.299 368.817 142.379C369.224 149.378 369.875 156.051 370.77 162.398L371.747 167.892C372.072 169.275 372.357 170.659 372.601 172.042C372.846 173.344 372.968 174.646 372.968 175.948ZM445.233 128.951C445.233 136.031 444.623 143.111 443.402 150.191C442.263 157.19 439.862 163.823 436.2 170.089C435.061 171.961 433.759 173.792 432.294 175.582C430.829 177.291 429.201 178.837 427.411 180.221C425.702 181.686 423.79 182.825 421.674 183.639C419.639 184.534 417.483 184.981 415.204 184.981C411.623 184.981 408.49 184.127 405.805 182.418C403.2 180.79 400.922 178.634 398.969 175.948C397.097 173.181 395.51 170.089 394.208 166.671C392.987 163.172 392.011 159.632 391.278 156.051C390.627 152.389 390.139 148.849 389.813 145.431C389.569 142.013 389.447 139.002 389.447 136.397C389.447 133.468 389.569 130.253 389.813 126.754C390.057 123.255 390.464 119.674 391.034 116.012C391.685 112.35 392.499 108.728 393.475 105.147C394.533 101.567 395.876 98.2301 397.504 95.1377C399.131 91.9639 401.085 89.1562 403.363 86.7148C405.642 84.1921 408.287 82.1982 411.298 80.7334V80.8555C413.902 79.472 416.506 78.7803 419.11 78.7803C420.738 78.7803 421.999 79.1465 422.894 79.8789C423.79 80.5299 424.196 81.6693 424.115 83.2969C428.591 84.1107 432.212 86.2673 434.979 89.7666C437.746 93.266 439.862 97.335 441.327 101.974C442.873 106.612 443.891 111.373 444.379 116.256C444.948 121.139 445.233 125.37 445.233 128.951ZM417.645 98.4336C416.262 98.4336 414.96 97.9046 413.739 96.8467C412.193 99.2067 410.891 101.933 409.833 105.025C408.775 108.036 407.92 111.17 407.269 114.425C406.7 117.599 406.293 120.813 406.049 124.068C405.805 127.324 405.682 130.375 405.682 133.224C405.682 135.584 405.805 138.635 406.049 142.379C406.293 146.041 406.74 149.744 407.391 153.487C408.124 157.231 409.1 160.73 410.321 163.985C411.623 167.241 413.292 169.641 415.326 171.188C417.849 169.723 419.924 167.403 421.552 164.229C423.261 160.974 424.603 157.434 425.58 153.609C426.557 149.785 427.208 145.919 427.533 142.013C427.94 138.106 428.143 134.77 428.143 132.003C428.143 129.968 428.021 127.324 427.777 124.068C427.533 120.813 427.126 117.517 426.557 114.181C425.987 110.763 425.173 107.589 424.115 104.659C423.139 101.729 421.877 99.5322 420.331 98.0674C419.599 98.3115 418.703 98.4336 417.645 98.4336ZM502.362 151.656C502.362 153.365 502.077 155.115 501.508 156.905C500.938 158.696 500.287 160.405 499.555 162.032C498.578 164.392 497.398 166.712 496.015 168.99C494.631 171.188 493.044 173.181 491.254 174.972C489.463 176.681 487.429 178.064 485.15 179.122C482.872 180.18 480.308 180.709 477.46 180.709C472.414 180.709 468.223 179.448 464.887 176.925C461.55 174.402 458.905 171.228 456.952 167.403C454.999 163.578 453.615 159.387 452.802 154.83C452.069 150.273 451.703 145.96 451.703 141.891C451.703 138.88 451.825 135.34 452.069 131.271C452.313 127.12 452.761 122.848 453.412 118.453C454.144 114.059 455.162 109.705 456.464 105.392C457.847 101.078 459.597 97.2536 461.713 93.917C463.829 90.499 466.392 87.7321 469.403 85.6162C472.496 83.5003 476.158 82.4424 480.39 82.4424C481.285 82.4424 482.587 82.6051 484.296 82.9307C486.005 83.2562 487.673 83.7445 489.301 84.3955C491.01 84.9652 492.474 85.779 493.695 86.8369C494.997 87.8135 495.648 88.9528 495.648 90.2549C495.648 91.4756 495.079 92.4115 493.939 93.0625C492.881 93.7135 491.579 94.2018 490.033 94.5273C488.568 94.7715 487.022 94.9342 485.394 95.0156C483.848 95.0156 482.587 95.0156 481.61 95.0156H479.413C477.134 97.0501 475.263 100.061 473.798 104.049C472.333 107.955 471.194 112.146 470.38 116.622C469.566 121.098 468.996 125.533 468.671 129.928C468.345 134.241 468.182 137.781 468.182 140.548C468.182 144.454 468.467 148.32 469.037 152.145C469.688 155.888 470.949 159.428 472.821 162.765C473.228 163.497 473.798 164.352 474.53 165.328C475.344 166.223 476.239 166.671 477.216 166.671C477.948 166.671 478.681 166.061 479.413 164.84C480.227 163.619 480.959 162.195 481.61 160.567C482.261 158.94 482.79 157.353 483.197 155.807C483.604 154.26 483.889 153.121 484.052 152.389C484.133 152.063 484.174 151.697 484.174 151.29C484.174 150.883 484.174 150.476 484.174 150.069C484.174 149.337 484.174 148.645 484.174 147.994C484.255 147.262 484.377 146.692 484.54 146.285C485.11 144.902 485.842 143.966 486.737 143.478C487.714 142.989 488.894 142.745 490.277 142.745C491.498 142.745 492.8 142.908 494.183 143.233C495.567 143.559 496.869 144.088 498.09 144.82C499.31 145.553 500.328 146.489 501.141 147.628C501.955 148.767 502.362 150.11 502.362 151.656ZM567.792 180.831C567.792 181.726 567.304 182.54 566.327 183.272C565.35 184.005 564.211 184.615 562.909 185.104C561.688 185.592 560.427 185.958 559.125 186.202C557.823 186.528 556.806 186.69 556.073 186.69C554.69 186.69 553.428 186.406 552.289 185.836C551.15 185.348 550.092 184.697 549.115 183.883C548.139 183.069 547.203 182.174 546.307 181.197C545.494 180.221 544.721 179.244 543.988 178.268C541.14 174.768 538.21 170.862 535.199 166.549C532.188 162.236 529.502 158.126 527.142 154.22C527.142 154.545 527.183 154.952 527.265 155.44C527.346 155.929 527.387 156.336 527.387 156.661C527.549 158.37 527.671 160.079 527.753 161.788C527.916 163.416 528.119 165.084 528.363 166.793C528.445 167.77 528.526 168.746 528.607 169.723C528.77 170.618 528.933 171.594 529.096 172.652C529.258 173.954 529.421 175.257 529.584 176.559C529.747 177.861 529.828 179.203 529.828 180.587C529.828 182.296 529.34 183.435 528.363 184.005C527.387 184.656 526.085 184.981 524.457 184.981C523.318 184.981 522.097 184.9 520.795 184.737C519.493 184.575 518.231 184.249 517.011 183.761C515.79 183.272 514.691 182.621 513.715 181.808C512.738 180.994 512.006 179.936 511.517 178.634C511.273 177.657 511.029 175.826 510.785 173.141C510.541 170.455 510.337 167.485 510.175 164.229C510.012 160.893 509.849 157.556 509.686 154.22C509.605 150.883 509.524 148.116 509.442 145.919C509.442 145.431 509.402 145.024 509.32 144.698C509.32 144.373 509.32 144.047 509.32 143.722C508.669 143.152 508.099 142.46 507.611 141.646C507.123 140.833 506.879 140.06 506.879 139.327C506.879 138.269 507.082 137.333 507.489 136.52C507.896 135.706 508.344 134.933 508.832 134.2C508.344 124.19 508.099 114.221 508.099 104.293C508.099 96.0736 508.181 87.9355 508.344 79.8789C508.588 71.7409 508.791 63.6029 508.954 55.4648L509.32 39.1074C509.402 38.2936 509.442 37.2357 509.442 35.9336C509.442 34.6315 509.442 33.248 509.442 31.7832C509.442 29.9928 509.442 28.1211 509.442 26.168C509.442 24.2148 509.483 22.3838 509.564 20.6748C509.646 18.9658 509.727 17.4196 509.808 16.0361C509.89 14.6527 510.053 13.6354 510.297 12.9844V13.1064C510.622 11.8857 511.07 10.9906 511.64 10.4209C512.209 9.85124 513.186 9.56641 514.569 9.56641C517.987 9.56641 520.632 10.5837 522.504 12.6182C524.376 14.6527 525.311 17.3789 525.311 20.7969C525.311 26.2493 525.271 31.7018 525.189 37.1543C525.189 42.5254 525.149 47.9372 525.067 53.3896C524.986 58.8421 524.905 64.2946 524.823 69.7471C524.823 75.1182 524.823 80.5299 524.823 85.9824C524.823 87.9355 524.823 89.9294 524.823 91.9639C524.905 93.917 524.945 95.9108 524.945 97.9453C525.027 99.5729 525.067 101.241 525.067 102.95C525.067 104.659 525.067 106.45 525.067 108.321L538.251 87.3252V87.4473L539.349 85.25C539.594 84.8431 539.716 84.5583 539.716 84.3955C539.797 84.2327 539.878 84.0293 539.96 83.7852C540.123 83.4596 540.407 82.9714 540.814 82.3203C541.303 81.6693 542.116 80.6927 543.256 79.3906C543.663 78.9837 544.151 78.6175 544.721 78.292C545.29 77.9665 546.023 77.8037 546.918 77.8037C547.813 77.8037 548.708 78.0885 549.603 78.6582C550.58 79.1465 551.434 79.7975 552.167 80.6113C552.899 81.4251 553.51 82.3203 553.998 83.2969C554.486 84.2734 554.73 85.1686 554.73 85.9824C554.73 86.6335 554.364 87.7728 553.632 89.4004C552.899 90.9466 551.923 92.859 550.702 95.1377C549.563 97.4163 548.261 99.8984 546.796 102.584C545.331 105.188 543.785 107.833 542.157 110.519C540.611 113.204 539.105 115.808 537.641 118.331C536.176 120.854 534.874 123.092 533.734 125.045L530.56 130.172C532.432 133.427 534.589 137.049 537.03 141.036C539.553 144.942 542.198 148.889 544.965 152.877C547.732 156.865 550.539 160.689 553.388 164.352C556.317 168.014 559.166 171.228 561.932 173.995L563.153 174.972C564.13 175.704 565.147 176.599 566.205 177.657C567.263 178.634 567.792 179.692 567.792 180.831Z" fill="black"/>
</svg>
